<?xml version="1.0" encoding="UTF-8" standalone="no"?>
<!DOCTYPE svg PUBLIC "-//W3C//DTD SVG 1.1//EN" "http://www.w3.org/Graphics/SVG/1.1/DTD/svg11.dtd">
<svg width="100%" height="100%" viewBox="0 0 160 160" version="1.1" xmlns="http://www.w3.org/2000/svg" xmlns:xlink="http://www.w3.org/1999/xlink" xml:space="preserve" style="fill-rule:evenodd;clip-rule:evenodd;stroke-linejoin:round;stroke-miterlimit:1.41421;">
    <g transform="matrix(0.993835,0,0,1.02791,-2.56154,-4.18145)">
        <rect x="-2.243" y="0" width="170.238" height="163.845" style="fill:rgb(215,228,222);"/>
    </g>
    <g transform="matrix(1.04167,0,0,1.04167,4.94792,-8.0599)">
        <path d="M121.769,107.4C123.689,106.398 125.21,104.718 125.234,101.804L125.234,75.04C125.196,71.204 123.903,69.881 120.308,68.135L78.2,45.3C75.8,44 73,44 70.6,45.3L55.7,53.2C55.4,53.4 55.2,53.5 54.9,53.8L50.9,58C50.5,58.4 49.9,58.7 49.3,58.9L42.6,60.4C42.3,60.5 42.1,60.6 41.8,60.7L23.8,70.3C21.2,71.7 19.538,74.4 19.538,77.4L19.53,102.172C19.491,104.14 20.903,105.955 22.13,106.618L70.695,131.354C72.636,132.302 76.012,132.374 77.721,131.404L121.769,107.4Z" style="fill:rgb(187,177,167);fill-rule:nonzero;"/>
        <path d="M104.5,80.9L55.3,53.5L42.2,60.5L91.1,88.4C93.6,89.8 95.1,92.5 95.1,95.4L95.1,100.2C95.1,101.4 96.4,102.2 97.5,101.6L107,96.4C108,95.8 108.7,94.8 108.7,93.6L108.7,88C108.7,85 107.1,82.3 104.5,80.9Z" style="fill:white;fill-rule:nonzero;"/>
        <path d="M121.793,107.386C123.74,106.366 125.235,104.475 125.234,101.804L125.234,74.4C125.137,72.609 124.705,71.866 124.305,71.025C124.296,72.633 124.689,74.247 122.592,75.827L78.2,99.8C75.8,101.1 73,101.1 70.6,99.8L22.6,74.2C20.237,72.936 22.74,71.025 22.74,71.025C22.74,71.025 19.344,73.23 19.538,78.02L19.529,102.172C19.54,103.726 20.445,105.563 22.132,106.612L70.592,131.284C72.673,132.393 75.98,132.337 77.837,131.337L121.793,107.386Z" style="fill:rgb(6,11,13);fill-opacity:0.1;fill-rule:nonzero;"/>
        <path d="M125.234,74.4C124.999,71.893 124.283,71.025 124.283,71.025C124.283,71.025 124.917,74.566 122.247,76.014L79.925,98.902C78.128,100.188 76.539,100.727 74.291,100.768L74.258,132.099C75.039,132.122 76.52,131.854 77.613,131.41L121.764,107.392C123.678,106.34 125.187,104.743 125.234,101.804L125.234,74.4Z" style="fill:rgb(6,11,13);fill-opacity:0.1;fill-rule:nonzero;"/>
    </g>
</svg>
