<?xml version="1.0" encoding="utf-8"?>
<!-- Generator: Adobe Illustrator 16.0.4, SVG Export Plug-In . SVG Version: 6.00 Build 0)  -->
<!DOCTYPE svg PUBLIC "-//W3C//DTD SVG 1.1//EN" "http://www.w3.org/Graphics/SVG/1.1/DTD/svg11.dtd">
<svg version="1.1" id="Layer_1" xmlns="http://www.w3.org/2000/svg" xmlns:xlink="http://www.w3.org/1999/xlink" x="0px" y="0px"
	 width="1080px" height="1080px" viewBox="0 0 1080 1080" enable-background="new 0 0 1080 1080" xml:space="preserve">
<g id="npm-wombat">
	<g>
		<g id="body__x2B__legs">
			<g id="body_2_">
				<g id="body">
					<path id="body_1_" fill="#986844" d="M837.6,686.896C783.191,573.474,671.861,484.121,541.371,484.12
						c-130.485,0.001-241.815,89.353-296.226,202.773c-54.408,113.425-54.46,249.319-54.46,249.319
						c118.524,80.148,350.686,86.52,350.686,86.52s232.207-6.387,350.688-86.52C892.059,936.215,892.008,800.318,837.6,686.896z"/>
					<g id="body_shadow">
						<path fill="#895D3D" d="M333.004,993.948c-135.034-122.052-51.083-339.339-51.083-339.339l39.117-54.425
							c0,0-13.179,4.335-25.65,7.975c-19.846,24.117-36.787,50.688-50.242,78.737c-50.691,105.675-54.199,230.836-54.441,247.444
							c0,0.031-0.001,0.063-0.001,0.093c-0.003,0.207-0.005,0.392-0.007,0.562c0,0.037,0,0.072-0.001,0.105
							c-0.002,0.149-0.003,0.283-0.004,0.402c0,0.062-0.001,0.112-0.001,0.167c0,0.078-0.001,0.151-0.001,0.213
							c0,0.063,0,0.105-0.001,0.15c0,0.105,0,0.181,0,0.181C229.871,962.712,281.476,981.144,333.004,993.948
							C333.005,993.948,333.005,993.948,333.004,993.948z"/>
						<path fill="#895D3D" d="M749.793,993.948c135.033-122.052,51.084-339.339,51.084-339.339l-39.117-54.427
							c0,0,13.18,4.336,25.65,7.975c19.846,24.117,36.787,50.688,50.242,78.736c50.689,105.676,54.199,230.837,54.439,247.445
							c0,0.031,0,0.063,0.002,0.093c0.004,0.207,0.006,0.392,0.008,0.562c0,0.037,0.002,0.072,0.002,0.105
							c0.002,0.149,0.002,0.283,0.004,0.402c0,0.062,0.002,0.112,0.002,0.167c0,0.078,0,0.151,0.002,0.213c0,0.063,0,0.105,0,0.15
							c0,0.105,0,0.181,0,0.181C852.928,962.712,801.322,981.144,749.793,993.948L749.793,993.948z"/>
					</g>
				</g>
				<g id="belly">
					<path fill="#B78563" d="M541.352,754.51c-149.287,0-278.975,42.325-344.516,104.489c-6.136,45.533-6.15,77.216-6.15,77.216
						c118.524,80.148,350.686,86.52,350.686,86.52s232.207-6.387,350.688-86.52c0,0-0.016-31.661-6.145-77.168
						C820.391,796.857,690.674,754.51,541.352,754.51z"/>
					<g id="belly_shadow">
						<path fill="#A57859" d="M332.897,993.922c0,0-71.103-54.922-76.443-177.001c0,0-43.336,23.687-59.626,42.132
							c-6.128,45.504-6.143,77.162-6.143,77.162c39.156,26.479,90.715,44.902,142.209,57.707
							C332.896,993.922,332.896,993.922,332.897,993.922z"/>
						<path fill="#A57859" d="M749.848,993.922c0,0,71.104-54.922,76.441-177.001c0,0,43.336,23.687,59.627,42.132
							c6.129,45.504,6.143,77.162,6.143,77.162c-39.154,26.479-90.715,44.902-142.209,57.707H749.848z"/>
					</g>
				</g>
			</g>
			<g id="legs">
				<g id="leg">
					<path fill="#986844" d="M395.156,847.969c-0.001-0.002-0.002-0.002-0.003-0.004c-20.121-36.356-62.928-61.458-112.486-61.458
						c-68.887,0-124.731,48.496-124.731,108.316c0,52.562,42.761,100.077,98.604,108.677s164.779,7.7,164.779,7.7
						C448.073,991.631,418.039,888.621,395.156,847.969z"/>
					<g id="shadow_3_">
						<path fill="#895D3D" d="M282.666,1005c-156.346-92.484-26.365-216.027-26.321-216.068
							c-56.246,10.493-98.41,53.914-98.41,105.894c0,52.562,42.761,100.077,98.604,108.677c8.67,1.335,18.621,2.441,29.245,3.357
							C284.763,1006.246,283.729,1005.629,282.666,1005z"/>
						
							<ellipse transform="matrix(-0.866 0.5 -0.5 -0.866 960.4411 1663.5012)" fill="#895D3D" cx="257.349" cy="960.428" rx="39.088" ry="43.716"/>
					</g>
					<g>
						
							<ellipse transform="matrix(-0.866 0.5 -0.5 -0.866 974.2777 1677.7871)" fill="#7A5336" cx="262.348" cy="969.428" rx="39.088" ry="43.716"/>
						
							<ellipse transform="matrix(-0.866 0.5 -0.5 -0.866 988.2706 1691.8074)" fill="#AF7146" cx="267.466" cy="978.313" rx="23.693" ry="26.499"/>
					</g>
				</g>
				<g id="leg_2_">
					<path fill="#986844" d="M689.811,847.969c0.002-0.002,0.002-0.002,0.004-0.004c20.121-36.356,62.928-61.458,112.484-61.458
						c68.889,0,124.73,48.496,124.73,108.316c0,52.562-42.764,100.077-98.605,108.677c-55.84,8.6-164.777,7.7-164.777,7.7
						C636.893,991.631,666.926,888.621,689.811,847.969z"/>
					<g id="shadow_2_">
						<path fill="#895D3D" d="M802.299,1005c156.348-92.484,26.365-216.027,26.32-216.068c56.246,10.493,98.41,53.914,98.41,105.894
							c0,52.562-42.762,100.077-98.604,108.677c-8.67,1.335-18.621,2.441-29.244,3.357
							C800.201,1006.246,801.234,1005.629,802.299,1005z"/>
						
							<ellipse transform="matrix(0.866 0.5 -0.5 0.866 591.1346 -285.1567)" fill="#895D3D" cx="827.66" cy="960.459" rx="39.089" ry="43.717"/>
					</g>
					<g>
						
							<ellipse transform="matrix(0.866 0.5 -0.5 0.866 594.9697 -281.4509)" fill="#7A5336" cx="822.661" cy="969.464" rx="39.088" ry="43.717"/>
						
							<ellipse transform="matrix(0.866 0.5 -0.5 0.866 598.7348 -277.6963)" fill="#AF7146" cx="817.523" cy="978.337" rx="23.692" ry="26.499"/>
					</g>
				</g>
			</g>
		</g>
		<g id="arms">
			<g id="arm_2_">
				<path id="shaodw" fill="#895D3D" d="M240.608,696.723c-0.98,2.19-1.95,4.387-2.894,6.587c-0.071,0.166-0.139,0.333-0.209,0.499
					c-26.921,92.87-11.07,123.695,16.792,177.936c7.083,13.788,64.561,85.475,128.542,129.272
					c22.635,0.313,38.438,0.187,38.477,0.186c38.424,5.729,71.904,8.671,93.679,10.142
					c-5.901-133.562-61.153-310.518-61.153-310.518s-58.333-134.016-120.074-142.88c-2.273,2.051-4.521,4.132-6.743,6.239
					c-0.074,0.069-0.147,0.142-0.221,0.212c-4.385,4.167-8.671,8.443-12.854,12.825c-0.137,0.146-0.273,0.287-0.41,0.433
					c-4.13,4.34-8.159,8.782-12.083,13.316c-0.139,0.16-0.278,0.319-0.417,0.48c-1.948,2.26-3.872,4.542-5.768,6.849
					c-0.081,0.1-0.16,0.196-0.241,0.295c-1.86,2.27-3.695,4.559-5.504,6.867c-0.084,0.107-0.169,0.213-0.253,0.32
					c-1.797,2.3-3.565,4.623-5.31,6.964c-0.217,0.291-0.432,0.583-0.648,0.875c-3.437,4.638-6.77,9.352-9.996,14.137
					c-0.265,0.395-0.529,0.785-0.792,1.181c-1.579,2.357-3.136,4.73-4.662,7.125c-0.101,0.156-0.199,0.316-0.3,0.477
					c-1.431,2.252-2.835,4.521-4.219,6.799c-0.256,0.42-0.513,0.84-0.767,1.261c-1.419,2.357-2.814,4.729-4.182,7.113
					c-0.243,0.425-0.482,0.854-0.724,1.276c-1.245,2.188-2.47,4.391-3.671,6.603c-0.181,0.334-0.367,0.665-0.547,0.999
					c-1.294,2.398-2.557,4.812-3.798,7.234c-0.277,0.542-0.552,1.084-0.827,1.627c-1.251,2.471-2.486,4.949-3.683,7.444
					c-1.298,2.706-2.561,5.426-3.797,8.153C241.098,695.606,240.857,696.166,240.608,696.723z"/>
				<path id="arm_1_" fill="#986844" d="M473.841,710.824c0,0,61.663,197.479,61.663,332.669
					c-139.34,0-249.399-138.77-261.206-161.751c-32.797-63.847-48.968-95.224,1.694-233.572
					C353.938,435.312,473.841,710.824,473.841,710.824z"/>
			</g>
			<g id="arm_5_">
				<path id="shaodw_1_" fill="#895D3D" d="M841.936,696.723c0.979,2.19,1.947,4.387,2.893,6.587
					c0.072,0.166,0.139,0.333,0.211,0.499c26.92,92.87,11.068,123.695-16.793,177.936c-7.084,13.788-64.561,85.475-128.543,129.272
					c-22.635,0.313-38.438,0.187-38.475,0.186c-38.426,5.729-71.906,8.671-93.682,10.142c5.9-133.562,61.154-310.518,61.154-310.518
					s58.332-134.016,120.072-142.88c2.271,2.051,4.521,4.132,6.742,6.239c0.074,0.069,0.146,0.142,0.223,0.212
					c4.385,4.167,8.672,8.443,12.854,12.825c0.139,0.146,0.273,0.287,0.41,0.433c4.129,4.34,8.158,8.782,12.082,13.316
					c0.141,0.16,0.279,0.319,0.418,0.48c1.947,2.26,3.871,4.542,5.77,6.849c0.08,0.1,0.158,0.196,0.238,0.295
					c1.861,2.27,3.695,4.559,5.506,6.867c0.084,0.107,0.17,0.213,0.254,0.32c1.797,2.3,3.562,4.623,5.311,6.964
					c0.217,0.291,0.432,0.583,0.648,0.875c3.436,4.638,6.77,9.352,9.996,14.137c0.264,0.395,0.527,0.785,0.791,1.181
					c1.578,2.357,3.137,4.73,4.66,7.125c0.104,0.156,0.199,0.316,0.303,0.477c1.432,2.252,2.834,4.521,4.219,6.799
					c0.256,0.42,0.514,0.84,0.768,1.261c1.42,2.357,2.814,4.729,4.184,7.113c0.242,0.425,0.48,0.854,0.725,1.276
					c1.244,2.188,2.469,4.391,3.672,6.603c0.182,0.334,0.365,0.665,0.547,0.999c1.293,2.398,2.559,4.812,3.797,7.234
					c0.277,0.542,0.555,1.084,0.828,1.627c1.25,2.471,2.484,4.949,3.684,7.444c1.299,2.706,2.561,5.426,3.797,8.153
					C841.445,695.606,841.686,696.166,841.936,696.723z"/>
				<path id="arm_6_" fill="#986844" d="M608.701,710.824c0,0-61.662,197.479-61.662,332.669
					c139.34,0,249.398-138.77,261.205-161.751c32.797-63.847,48.969-95.224-1.693-233.572
					C728.605,435.312,608.701,710.824,608.701,710.824z"/>
			</g>
		</g>
		<path id="head_shadow" fill="#7A5336" d="M534.878,521.432c-115.1,0-215.95,52.197-272.002,130.438
			c100.513,82.639,276.051,81.684,276.051,81.684s169.624,0.925,270.864-77.543C754.363,575.475,651.998,521.432,534.878,521.432z"
			/>
	</g>
	<g id="npm_-_wombat_-_face">
		<g id="ears_3_">
			<g id="ear_4_">
				<path fill="#986844" d="M731.545,38.764L680.51,72.368l26.504,57.192l68.115,18.423
					C775.129,147.983,764.914,86.508,731.545,38.764z"/>
				<polygon fill="#895D3D" points="686.527,85.354 680.51,72.368 731.545,38.764 717.164,100.796 				"/>
			</g>
			<g id="ear_1_">
				<path fill="#986844" d="M351.199,38.764l51.038,33.604l-26.504,57.192l-68.118,18.423
					C307.614,147.983,317.829,86.508,351.199,38.764z"/>
				<polygon fill="#895D3D" points="396.22,85.354 402.236,72.368 351.199,38.764 365.582,100.796 				"/>
			</g>
		</g>
		<path id="head_2_" fill="#986844" d="M864.447,277.306C805.104,143.034,683.674,37.257,541.352,37.256
			c-142.324,0.001-263.753,105.777-323.1,240.05c-59.344,134.273-59.4,295.15-59.4,295.15
			c108.216,145.6,382.5,144.097,382.5,144.097s274.277,1.503,382.494-144.097C923.848,572.456,923.791,411.579,864.447,277.306z"/>
		<g id="nose_6_">
			<ellipse id="nose_8_" fill="#895D3D" cx="541.352" cy="654.609" rx="112.506" ry="54.424"/>
			<ellipse id="nose_7_" cx="541.352" cy="644.082" rx="112.506" ry="54.422"/>
		</g>
		<g id="face_4_">
			<g id="eyes_6_">
				<g id="eye_8_">
					<path fill="#B78563" d="M427.879,585.288c0,13.527-10.965,24.489-24.491,24.489c-13.525,0-24.493-10.962-24.493-24.489
						c0-13.529,10.966-24.491,24.493-24.491C416.916,560.797,427.879,571.759,427.879,585.288z"/>
					<circle cx="408.042" cy="589.762" r="18.333"/>
					<circle fill="#FFFFFF" cx="409.637" cy="595.196" r="5.926"/>
				</g>
				<g id="eye_7_">
					<path fill="#B78563" d="M656.018,585.288c0,13.527,10.967,24.489,24.492,24.489c13.523,0,24.492-10.962,24.492-24.489
						c0-13.529-10.969-24.491-24.492-24.491C666.982,560.797,656.018,571.759,656.018,585.288z"/>
					<circle cx="675.854" cy="589.762" r="18.333"/>
					<circle fill="#FFFFFF" cx="674.26" cy="595.196" r="5.927"/>
				</g>
			</g>
		</g>
		<path id="shadow_1_" fill="#895D3D" d="M226.463,568.159c0,0,35.38,61.271,86.772,108.981
			c-59.193-21.307-116.802-54.126-154.382-104.688c0,0,0.056-160.877,59.4-295.15c38.715-87.596,103.858-163.053,183.983-204.937
			C398.713,74.585,221.055,188.318,226.463,568.159z M856.283,568.159c0,0-35.379,61.271-86.773,108.981
			c59.193-21.306,116.801-54.125,154.383-104.687c0,0-0.057-160.877-59.398-295.15C825.777,189.707,760.637,114.25,680.512,72.366
			C684.031,74.585,861.691,188.318,856.283,568.159z"/>
	</g>
</g>
<g id="Laptop_1_">
	<g id="Base_1_">
		<path fill="#AFAFAF" d="M542.725,1033.5H276.5v7.705c0,0,0.927,8.295,9.651,8.295c8.723,0,256.574,0,256.574,0s247.85,0,256.572,0
			c8.725,0,10.203-8.295,10.203-8.295v-7.705H542.725z"/>
		<rect x="303.5" y="1028.5" fill="#333333" width="477" height="21"/>
		<path opacity="0.1" d="M780.5,1028.5h-477v5h-27v7.705c0,0,0.21,2.731,2.288,4.992c0.405,0.144,0.549,0.303,1.004,0.303h525.379
			c0.635,0,1.457-0.231,1.986-0.501c1.795-2.217,2.342-4.794,2.342-4.794v-7.705h-29V1028.5z"/>
	</g>
	<g id="Lid_1_">
		<path fill="#CCCCCC" d="M835.416,806.807c0.16-1.437-1.619-2.307-3.975-2.307H253.523c-2.355,0-4.135,0.87-3.976,2.307l0.01-0.057
			c-0.018,0.129-0.025,0.188-0.01,0.32l26.078,234.579c0.16,1.436,2.025,2.851,4.167,2.851h525.379c2.141,0,4.006-1.451,4.166-2.888
			l26.078-234.472c0.016-0.134,0.008-0.189-0.01-0.318L835.416,806.807z"/>
		<g id="Logo_3_">
			<path id="Logo_5_" opacity="0.1" d="M474.456,911.431h141.345l-0.877,30.178h-69.828l-0.004,4.85h-30.944l-0.055-4.85h-38.825
				L474.456,911.431z M483.052,936.486l15.458,0.001l-0.265-15.077h7.819l0.218,15.077h7.701l-0.227-19.938h-31.179L483.052,936.486
				z M521.518,916.46l0.303,25.148h15.362l-0.011-5.018h15.584l0.082-20.131H521.518z M536.952,921.31h8.166l-0.01,10.239h-8.133
				L536.952,921.31z M560.734,916.46l-0.145,19.939h15.486l0.201-14.97h7.789l-0.248,14.97h7.738l0.291-14.909h7.799l-0.34,14.909
				h7.748l0.514-19.939H560.734z"/>
			<path id="Logo_4_" fill="#FFFFFF" d="M474.482,912.405h141.29l-0.875,30.177h-69.801l-0.006,4.851h-30.932l-0.055-4.851h-38.81
				L474.482,912.405z M483.075,937.462h15.453l-0.265-15.076h7.816l0.218,15.076h7.699l-0.227-19.938h-31.167L483.075,937.462z
				 M521.526,917.435l0.302,25.147h15.357l-0.012-5.017h15.577l0.084-20.131H521.526z M536.954,922.285h8.164l-0.012,10.238h-8.13
				L536.954,922.285z M560.727,917.435l-0.145,19.939h15.48l0.201-14.97h7.787l-0.246,14.97h7.732l0.291-14.909h7.797l-0.34,14.909
				h7.744l0.514-19.939H560.727z"/>
		</g>
		<path opacity="0.1" d="M279.792,1044.5h525.379c2.141,0,4.006-1.451,4.166-2.888l25.953-232.765
			c-0.445-1.037-1.961-1.348-3.85-1.348H253.523c-1.889,0-3.405,0.168-3.851,1.205l25.953,233.199
			C275.786,1043.34,277.651,1044.5,279.792,1044.5z"/>
	</g>
</g>
</svg>
