<?xml version="1.0" encoding="UTF-8" standalone="no"?>
<svg width="22px" height="22px" viewBox="0 0 22 22" version="1.1" xmlns="http://www.w3.org/2000/svg" xmlns:xlink="http://www.w3.org/1999/xlink" xmlns:sketch="http://www.bohemiancoding.com/sketch/ns">
    <path d="M0,1.08393712 L0,20.0790138 C0,20.6326581 0.45097518,21.0814755 0.990777969,21.0814755 L4.00922203,21.0814755 C4.55641359,21.0814755 5,20.6420171 5,20.0790138 L5,1.08393712 C5,0.53029283 4.54902482,0.081475452 4.00922203,0.081475452 L0.990777969,0.081475452 C0.443586406,0.081475452 0,0.520933792 0,1.08393712 L0,1.08393712 Z M6,1.08393712 L6,20.0790138 C6,20.6326581 6.45097518,21.0814755 6.99077797,21.0814755 L10.009222,21.0814755 C10.5564136,21.0814755 11,20.6420171 11,20.0790138 L11,1.08393712 C11,0.53029283 10.5490248,0.081475452 10.009222,0.081475452 L6.99077797,0.081475452 C6.44358641,0.081475452 6,0.520933792 6,1.08393712 L6,1.08393712 Z M11.6270416,2.05460551 L16.5433292,20.4024406 C16.6866229,20.9372199 17.238394,21.2540233 17.7598034,21.114312 L20.6753965,20.3330812 C21.203943,20.1914576 21.5186744,19.6521649 21.3729584,19.1083454 L16.4566708,0.760510282 C16.3133771,0.22573096 15.761606,-0.0910723715 15.2401966,0.0486388711 L12.3246035,0.829869681 C11.796057,0.971493279 11.4813256,1.51078605 11.6270416,2.05460551 L11.6270416,2.05460551 Z" id="editor_books_library_collection_glyph"></path>
</svg>
