<?xml version="1.0" encoding="UTF-8"?>
<svg width="250px" height="322px" viewBox="0 0 250 322" version="1.1" xmlns="http://www.w3.org/2000/svg" xmlns:xlink="http://www.w3.org/1999/xlink" xmlns:sketch="http://www.bohemiancoding.com/sketch/ns">
    <!-- Generator: Sketch 3.3.3 (12072) - http://www.bohemiancoding.com/sketch -->
    <title>Slice 1</title>
    <desc>Created with Sketch.</desc>
    <defs></defs>
    <g id="Page-1" stroke="none" stroke-width="1" fill="none" fill-rule="evenodd" sketch:type="MSPage">
        <g id="readthedocs" sketch:type="MSLayerGroup" fill="#465158">
            <g id="layer1" transform="translate(0.000000, 0.637800)" sketch:type="MSShapeGroup">
                <g id="g5310" transform="translate(0.712247, 0.999936)">
                    <g id="g3878" transform="translate(0.117496, 0.691142)">
                        <g id="g3857" transform="translate(0.833966, 0.626514)">
                            <path d="M107.694179,153.313672 C104.111821,153.788512 101.358773,156.719485 101.108919,160.324528 C100.859064,163.929571 103.181458,167.212307 106.664061,168.176798 C106.664061,168.176798 125.178842,174.303579 156.698344,176.859217 C182.008341,178.911381 210.705938,175.093301 210.705938,175.093301 C213.599277,175.010362 216.194487,173.291605 217.399906,170.660017 C218.605325,168.02843 218.211784,164.940653 216.384826,162.695545 C214.557867,160.450437 211.61451,159.437576 208.792863,160.083017 C208.792863,160.083017 180.719015,163.553941 157.875622,161.701773 C127.793028,159.262638 111.37317,153.755151 111.37317,153.755151 C110.20202,153.306816 108.938152,153.155151 107.694179,153.313672 L107.694179,153.313672 Z M107.694179,115.6408 C104.111821,116.11564 101.358773,119.046613 101.108919,122.651656 C100.859064,126.256699 103.181458,129.539435 106.664061,130.503926 C106.664061,130.503926 125.178842,136.630707 156.698344,139.186345 C182.008341,141.238509 210.705938,137.420429 210.705938,137.420429 C213.599277,137.33749 216.194487,135.618733 217.399906,132.987145 C218.605325,130.355558 218.211784,127.267781 216.384826,125.022673 C214.557867,122.777565 211.61451,121.764704 208.792863,122.410145 C208.792863,122.410145 180.719015,125.881069 157.875622,124.028901 C127.793028,121.589766 111.37317,116.082279 111.37317,116.082279 C110.20202,115.633944 108.938152,115.482279 107.694179,115.6408 L107.694179,115.6408 Z M107.694179,77.9679284 C104.111821,78.4427681 101.358773,81.3737407 101.108919,84.978784 C100.859064,88.5838274 103.181458,91.8665632 106.664061,92.8310537 C106.664061,92.8310537 125.178842,98.9578352 156.698344,101.513473 C182.008341,103.565637 210.705938,99.7475575 210.705938,99.7475575 C213.599277,99.6646179 216.194487,97.9458608 217.399906,95.3142734 C218.605325,92.682686 218.211784,89.5949088 216.384826,87.3498009 C214.557867,85.1046929 211.61451,84.0918317 208.792863,84.7372726 C208.792863,84.7372726 180.719015,88.2081967 157.875622,86.3560288 C127.793028,83.916894 111.37317,78.4094074 111.37317,78.4094074 C110.20202,77.9610717 108.938152,77.8094075 107.694179,77.9679284 L107.694179,77.9679284 Z M107.694179,40.2950565 C104.111821,40.7698962 101.358773,43.7008687 101.108919,47.3059121 C100.859064,50.9109554 103.181458,54.1936913 106.664061,55.1581817 C106.664061,55.1581817 125.178842,61.2849633 156.698344,63.8406014 C182.008341,65.8927652 210.705938,62.0746856 210.705938,62.0746856 C213.599277,61.9917459 216.194487,60.2729888 217.399906,57.6414014 C218.605325,55.009814 218.211784,51.9220369 216.384826,49.6769289 C214.557867,47.431821 211.61451,46.4189598 208.792863,47.0644007 C208.792863,47.0644007 180.719015,50.5353248 157.875622,48.6831569 C127.793028,46.2440221 111.37317,40.7365354 111.37317,40.7365354 C110.20202,40.2881998 108.938152,40.1365355 107.694179,40.2950565 L107.694179,40.2950565 Z M54.9149939,0.564280347 C15.3244739,0.828272997 0.574583877,13.0201421 0.574583877,13.0201421 L0.574583877,308.675784 C0.574583877,308.675784 14.9777705,296.236595 61.3482443,298.136207 C107.718718,300.035819 117.284242,316.291124 174.272273,317.435951 C231.260304,318.580778 245.585508,308.675784 245.585508,308.675784 L246.406772,7.27128534 C246.406772,7.27128534 220.760338,14.5298683 170.850333,14.9364292 C120.940328,15.3430137 108.944038,2.23999324 63.1276518,0.701160018 C60.2641273,0.605000012 57.5543648,0.546701243 54.9149939,0.56426622 L54.9149939,0.564280347 Z M88.0393799,19.8640267 C88.0393799,19.8640267 112.029352,27.7942604 156.341304,29.992967 C193.792938,31.8512756 231.350239,26.2972724 231.350239,26.2972724 L231.350239,294.166758 C231.350239,294.166758 212.341143,304.130549 164.827717,300.736883 C128.005635,298.10685 87.4918659,284.174692 87.4918659,284.174692 L88.0393799,19.8640267 L88.0393799,19.8640267 Z M64.9070639,26.8447816 C69.1404073,26.8447816 72.5722101,30.2765845 72.5722101,34.5099278 C72.5722101,38.7432712 69.1404073,42.1750741 64.9070639,42.1750741 C64.9070639,42.1750741 52.4986324,42.2387883 44.9229286,42.9963427 C32.2035075,44.2682871 23.5700249,48.8820791 23.5700249,48.8820791 C21.1493651,50.1537838 18.2341217,50.0374025 15.922541,48.576779 C13.6109602,47.1161554 12.2542652,44.5332178 12.3635573,41.8010242 C12.4728494,39.0688306 14.0315228,36.6025123 16.4523856,35.3311941 C16.4523856,35.3311941 27.7147142,29.3731823 43.4172758,27.8029252 C52.4907917,26.8954846 64.9070639,26.8447816 64.9070639,26.8447816 L64.9070639,26.8447816 Z M57.51567,64.6230058 C61.7528086,64.5156852 64.9070639,64.6230058 64.9070639,64.6230058 C68.7490877,65.0886736 71.6386164,68.3495709 71.6386164,72.2197122 C71.6386164,76.0898534 68.7490877,79.3507507 64.9070639,79.8164185 C64.9070639,79.8164185 52.4986324,79.8800857 44.9229286,80.6376824 C32.2035075,81.9096316 23.5700249,86.5234235 23.5700249,86.5234235 C19.8281056,88.4884957 15.2016745,87.0482789 13.2363036,83.3065166 C11.2709328,79.5647543 12.7107802,74.9382082 16.4523856,72.9725386 C16.4523856,72.9725386 27.7147142,67.0145268 43.4172758,65.4442697 C47.9540361,64.990547 53.2785315,64.7303122 57.51567,64.6230058 L57.51567,64.6230058 Z M64.9070639,102.264346 C69.1404073,102.264346 72.5722101,105.696148 72.5722101,109.929492 C72.5722101,114.162835 69.1404073,117.594638 64.9070639,117.594638 C64.9070639,117.594638 52.4986324,117.521458 44.9229286,118.279027 C32.2035075,119.550971 23.5700249,124.164763 23.5700249,124.164763 C19.8283431,126.128057 15.2035436,124.687469 13.2386544,120.946625 C11.2737651,117.205781 12.7123799,112.580368 16.4523856,110.613883 C16.4523856,110.613883 27.7147142,104.655867 43.4172758,103.085614 C52.4907917,102.178169 64.9070639,102.264346 64.9070639,102.264346 L64.9070639,102.264346 Z" id="path3929-8"></path>
                        </g>
                    </g>
                </g>
            </g>
        </g>
    </g>
</svg>