<?xml version="1.0" encoding="UTF-8"?>
<svg width="354px" height="206px" viewBox="0 0 354 206" version="1.1" xmlns="http://www.w3.org/2000/svg" xmlns:xlink="http://www.w3.org/1999/xlink" xmlns:sketch="http://www.bohemiancoding.com/sketch/ns">
    <!-- Generator: Sketch 3.3.3 (12072) - http://www.bohemiancoding.com/sketch -->
    <title>Slice 1</title>
    <desc>Created with Sketch.</desc>
    <defs></defs>
    <g id="Page-1" stroke="none" stroke-width="1" fill="none" fill-rule="evenodd" sketch:type="MSPage">
        <g id="02-sticker-mule-logo-light-bg-stacked" sketch:type="MSLayerGroup">
            <path d="M16.7,205.2 C10.7,205.2 5.4,204.5 0.6,199.8 L6.8,193.6 C9.9,196.7 14,197.2 16.9,197.2 C20.2,197.2 23.6,196.1 23.6,193.3 C23.6,191.4 22.6,190.1 19.6,189.8 L13.6,189.2 C6.8,188.5 2.6,185.6 2.6,178.6 C2.6,170.8 9.5,166.5 17.2,166.5 C23.1,166.5 28,167.5 31.7,170.9 L25.9,176.8 C23.7,174.8 20.4,174.3 17.1,174.3 C13.3,174.3 11.7,176 11.7,177.9 C11.7,179.3 12.3,180.9 15.6,181.2 L21.6,181.8 C29.1,182.5 32.9,186.5 32.9,192.9 C32.7,201.2 25.6,205.2 16.7,205.2 L16.7,205.2 Z" id="Shape" fill="#4E2817" sketch:type="MSShapeGroup"></path>
            <path d="M49.2,204.8 C41.5,204.8 38.2,199.4 38.2,194 L38.2,175.3 L34.2,175.3 L34.2,168 L38.2,168 L38.2,156.8 L47.6,156.8 L47.6,168 L54.3,168 L54.3,175.2 L47.6,175.2 L47.6,193.4 C47.6,195.6 48.6,196.8 50.9,196.8 L54.3,196.8 L54.3,204.8 L49.2,204.8 L49.2,204.8 Z" id="Shape" fill="#4E2817" sketch:type="MSShapeGroup"></path>
            <path d="M58.5,160.5 L58.5,152.8 L68.2,152.8 L68.2,160.5 L58.5,160.5 L58.5,160.5 Z M58.7,204.8 L58.7,167 L68.1,167 L68.1,204.8 L58.7,204.8 L58.7,204.8 Z" id="Shape" fill="#4E2817" sketch:type="MSShapeGroup"></path>
            <path d="M89.5,205.2 C81.9,205.2 72.6,201.1 72.6,185.8 C72.6,170.5 82,166.5 89.5,166.5 C94.7,166.5 98.7,168.1 102,171.6 L95.6,178 C93.6,175.9 92,175 89.5,175 C87.2,175 85.5,175.8 84.1,177.5 C82.6,179.3 82,181.9 82,185.9 C82,189.9 82.7,192.5 84.1,194.3 C85.5,196 87.2,196.8 89.5,196.8 C92,196.8 93.6,195.9 95.6,193.8 L102,200.1 C98.6,203.6 94.7,205.2 89.5,205.2 L89.5,205.2 Z" id="Shape" fill="#4E2817" sketch:type="MSShapeGroup"></path>
            <path d="M128,204.8 L118.7,189 L114.7,193.5 L114.7,204.8 L105.3,204.8 L105.3,153.1 L114.7,153.1 L114.7,182.4 L127.3,166.9 L138.7,166.9 L125.2,182.2 L139.7,204.8 L128,204.8 L128,204.8 Z" id="Shape" fill="#4E2817" sketch:type="MSShapeGroup"></path>
            <path d="M147.6,188.8 C147.6,193.7 150.6,197.2 155.9,197.2 C160,197.2 162.1,196 164.5,193.6 L170.2,199.2 C166.4,203 162.6,205.2 155.8,205.2 C146.9,205.2 138.3,201.1 138.3,185.8 C138.3,173.5 145,166.5 154.8,166.5 C165.3,166.5 171.3,174.2 171.3,184.6 L171.3,188.8 L147.6,188.8 L147.6,188.8 Z M161.1,178.3 C160.1,176 158,174.4 154.8,174.4 C151.6,174.4 149.5,176.1 148.5,178.3 C147.9,179.7 147.7,180.7 147.6,182.4 L162,182.4 C161.9,180.7 161.7,179.7 161.1,178.3 L161.1,178.3 Z" id="Shape" fill="#4E2817" sketch:type="MSShapeGroup"></path>
            <path d="M196.3,177.3 C194.8,175.8 193.6,175 191.3,175 C188.4,175 185.2,177.2 185.2,182 L185.2,204.8 L175.8,204.8 L175.8,167 L185,167 L185,170.6 C186.8,168.4 190.5,166.5 194.5,166.5 C198.2,166.5 200.8,167.4 203.4,170.1 L196.3,177.3 L196.3,177.3 Z" id="Shape" fill="#4E2817" sketch:type="MSShapeGroup"></path>
            <path d="M245.9,166.5 C241.2,166.5 237.8,168 234.6,171.3 C232.2,168 228.8,166.5 224.6,166.5 C221.1,166.5 217.6,167.9 215.2,170.4 L215.2,167 L206,167 L206,204.8 L215.4,204.8 L215.4,181.9 C215.4,176.7 218.7,175 221.7,175 C224.7,175 227.9,176.7 227.9,181.9 L227.9,204.8 L237.3,204.8 L237.3,181.7 C237.3,176.8 240.7,175 243.6,175 C246.6,175 249.8,176.7 249.8,181.9 L249.8,204.8 L259.2,204.8 L259.2,180.6 C259.2,176.5 258.1,172.9 255.1,169.8 C253.1,167.8 249.7,166.5 245.9,166.5 L245.9,166.5 Z" id="Shape" fill="#F26922" sketch:type="MSShapeGroup"></path>
            <path d="M286.9,189.8 C286.9,195 283.6,196.7 280.6,196.7 C277.6,196.7 274.4,195 274.4,189.8 L274.4,167 L265,167 L265,191.2 C265,195.3 265.8,198.9 268.8,201.9 C270.9,204 274,205.2 277.7,205.2 C281.2,205.2 284.7,203.9 287.1,201.3 L287.1,204.8 L296.3,204.8 L296.3,167 L286.9,167 L286.9,189.8 L286.9,189.8 Z" id="Shape" fill="#F26922" sketch:type="MSShapeGroup"></path>
            <path d="M311.8,193.4 L311.8,153.1 L302.4,153.1 L302.4,194 C302.4,199.4 305.7,204.8 313.4,204.8 L318.8,204.8 L318.8,196.8 L315.2,196.8 C312.8,196.8 311.8,195.7 311.8,193.4 L311.8,193.4 Z" id="Shape" fill="#F26922" sketch:type="MSShapeGroup"></path>
            <path d="M353.5,184.6 C353.5,174.2 347.5,166.5 337,166.5 C327.2,166.5 320.5,173.5 320.5,185.8 C320.5,201.1 329.1,205.2 338,205.2 C344.8,205.2 348.5,203.1 352.4,199.2 L346.7,193.6 C344.3,196 342.3,197.2 338.1,197.2 C332.8,197.2 329.8,193.6 329.8,188.8 L353.5,188.8 L353.5,184.6 L353.5,184.6 Z M329.8,182.4 C329.9,180.7 330.1,179.7 330.7,178.3 C331.7,176 333.8,174.4 337,174.4 C340.2,174.4 342.3,176.1 343.3,178.3 C343.9,179.7 344.1,180.7 344.2,182.4 L329.8,182.4 L329.8,182.4 Z" id="Shape" fill="#F26922" sketch:type="MSShapeGroup"></path>
            <path d="M194.5,142 C193.2,142.6 191.4,142.5 189.5,142.6 C187.9,142.6 185.6,142.7 184.7,141.8 C184.2,141.3 184,140.4 184,139.8 C184,139.1 184.1,138.3 184.3,137.5 C184.5,136.6 184.7,135.4 184.3,135 C183.9,134.4 182.4,134.7 181.7,134.2 C180.9,133.7 180.7,132.7 180.4,131.4 C180.3,131 180.1,130.7 180,130.4 C179.8,128.5 180.4,126 180.8,124.1 C181.3,122.1 181.8,120.2 182.2,118.3 C182.7,115.5 182.9,112.3 182.7,109.3 C182.6,107.8 182.4,106.6 182.6,105.3 C182.8,104.1 183.3,103.1 183.6,101.9 C183.7,101.5 183.6,101.1 183.7,100.7 C183.7,100.3 184,100 184,99.7 C184,98.9 183.8,97.9 183.7,96.9 C183.5,94.2 183.7,90.5 183.9,88.2 C184,87.4 184.3,86.5 183.8,86.1 C181,86.1 178.5,86.6 175.9,86.9 C169,87.8 160.3,87.9 153.6,86.6 C153,86.5 152.3,86.5 151.7,86.3 C147,85.2 142.6,83.2 139.2,80.5 C138.7,80.1 138.1,79.6 137.5,79.2 C136.9,78.8 136.3,78.1 135.8,77.9 C133.1,76.6 129.5,78.1 128.4,79.8 C128,80.5 127.6,81.4 127.2,82.2 C126.8,83 126.4,83.8 126.1,84.6 C124.3,88.7 122.3,92.6 120.5,96.7 C119.5,99.1 118.3,101.7 117.5,104.3 C115.9,109.9 117.4,117.5 118.7,122.8 C118.8,123.3 119.1,123.8 119.3,124.3 C119.7,125.6 120.6,127.3 121.6,128.2 C122.1,128.7 123,128.9 123.6,129.4 C124.3,130 124.9,131.3 125.5,132.4 C125.7,132.8 126.1,133.4 126.4,133.9 C127.1,135.1 127.3,136.2 126,136.9 C125,137.4 123.5,137.6 122.1,137.7 C121.5,137.9 121.7,138.7 121.3,139.1 C121.1,139.3 120.1,139.7 119.6,139.9 C117.8,140.4 114.6,140.4 113.2,139.9 C112.5,139.6 111.7,139.1 111.5,138.5 C111.1,137.4 112,135.9 111.2,135.1 C110.8,134.7 110.1,134.8 109.4,134.5 C108.4,134.1 107.5,133.2 107.1,132 C106,129.2 106.7,124.9 106.6,121.5 C106.6,120.5 106.4,119.4 106.4,118.3 C106.3,116.3 105.9,114.3 105.6,112.3 C105.5,111.3 105.2,110.5 105,109.6 C104.7,108.2 104.4,106.6 104,105.2 C103.5,103.6 103.5,102.1 104.1,100.7 C104.2,100.3 104.6,100 104.9,99.5 C105.2,98.7 105.3,97.8 105.3,97.1 C105.1,96.7 104.1,97 103.9,96.6 C103.3,92.2 102.7,87.9 102.3,83.3 C102.2,81.8 102.2,80.2 102,78.6 C101.7,75.5 102,72.3 101.7,69.3 C101.6,67.8 101.2,66.4 101,65 C100.5,61 99.4,55.9 100.2,51.7 C100.7,49 101.7,46.9 103.2,44.9 C104.3,43.5 105.4,42.2 106.7,41 C107.9,39.8 109.3,38.7 110.8,37.6 C111.7,36.9 112.7,36.1 113.8,35.7 C116.1,34.6 119.1,33.7 122.3,33.6 C125.5,33.5 129.1,33.4 132.2,34 C135.2,34.5 138.2,35.1 141.2,35.7 C144.1,36.3 146.9,37.1 149.7,37.8 C150.1,37.9 150.4,38.1 150.7,38.2 C151.6,38.4 152.6,38.5 153.5,38.8 C156.1,39.5 159.4,39.8 162.5,39.8 C165.9,39.8 168.9,39.7 171.7,39 C172.1,38.9 172.4,38.7 172.9,38.5 C173.3,38.3 173.9,38.4 174.3,38.2 C174.6,38.1 174.9,37.8 175.2,37.7 C176.8,36.9 178.2,36.2 179.6,35.2 C180.7,34.4 181.7,33.7 183.2,33.1 C183.9,32.8 184.5,32.5 185.2,32.3 C186.6,31.8 188.2,31.4 189.3,30.7 C191,29.6 192.3,28 193.7,26.8 C195.2,25.5 196.7,24.3 198.3,23 C201.5,20.5 204.7,18.2 207.7,15.8 C209.2,14.6 210.9,13.4 212.7,12.4 C216.2,10.4 219.7,8.1 224.7,7.7 C226.7,7.6 228.7,7.5 230.7,7.8 C231.2,7.9 232,8.2 232.5,8.1 C233,8 233.4,7.2 233.8,6.5 C234.5,5.2 235.1,4.3 235.7,2.7 C236.1,1.7 235.9,0.7 236.9,0.8 C237.9,0.8 237.8,3.5 237.8,4.5 C237.9,5.7 237.7,7.3 237.9,8.1 C238,8.7 238.8,9.5 239.6,9.5 C240.2,9.5 240.5,9.1 241,8.7 C241.5,8.4 242,8.2 242.4,7.9 C243.2,7.3 244.2,6.3 245,5.4 C245.7,4.7 246.8,3.1 247.9,3.2 C249.9,3.4 247.9,6.3 247.5,7.3 C246.5,9.6 245.5,11.2 244.3,13.4 C243.8,14.3 242.7,15.5 242.7,16.4 C242.7,17 243.2,17.5 243.5,18.1 C243.6,18.4 243.7,18.8 243.8,19.1 C244.5,20.7 245,22.9 245.5,24.7 C246,26.2 246.3,27.9 246.9,29.4 C247.4,30.9 248.2,32.3 248.8,33.7 C249,34.1 249,34.6 249.1,34.9 C250.4,38.1 251.6,41.8 253.1,44.9 C253.7,46.2 254.6,47.7 254.6,49.6 C254.6,51.6 253.5,52.6 252.6,54.1 C252.1,54.9 251.4,56.1 250.7,56.4 C250.2,56.6 249.5,56.4 249,56.5 C248.2,56.6 247.7,57.1 247,57.2 C245.1,57.4 243.4,56 242.9,54.6 C242.7,54.1 242.8,53.5 242.7,52.9 C242.3,50.7 241.2,49.6 239.6,48.1 C238.6,47.2 237.8,46.5 236.6,45.8 C234.8,44.9 232.9,44.3 231,43.3 C230.3,42.9 229.5,42.6 228.9,42.7 C227.9,42.9 226.9,44.5 226.1,45.5 C221.2,51.9 216.9,58.5 212.2,64.8 C209.1,69 205.7,73.2 203.2,78 C202.6,79.2 202.2,80.6 201.7,82 C201.2,83.4 201,84.9 200.5,86.3 C198.7,91.5 198.1,97.9 196.4,103.4 C196.2,104 196.2,104.6 196,105.3 C195.2,108.1 194.5,111.3 193.6,114.3 C192.9,116.5 192.7,119.5 192.6,122.4 C192.5,125.1 192.4,129 193.4,130.7 C193.9,131.6 195.8,132 196.5,132.9 C197,133.6 197.3,134.9 197.8,135.7 C198.1,136.3 199.1,137.6 199,138.5 C198.9,139.2 198.3,139.7 197.8,139.9 C197.2,140.2 196.4,140 195.8,140.3 C194.9,140.8 195.2,141.6 194.5,142 L194.5,142 Z" id="Shape" fill="#4E2817" sketch:type="MSShapeGroup"></path>
        </g>
    </g>
</svg>