<?xml version="1.0" encoding="UTF-8"?>
<svg width="156px" height="143px" viewBox="0 0 156 143" version="1.1" xmlns="http://www.w3.org/2000/svg" xmlns:xlink="http://www.w3.org/1999/xlink" xmlns:sketch="http://www.bohemiancoding.com/sketch/ns">
    <!-- Generator: Sketch 3.3.3 (12072) - http://www.bohemiancoding.com/sketch -->
    <title>Slice 1</title>
    <desc>Created with Sketch.</desc>
    <defs></defs>
    <g id="Page-1" stroke="none" stroke-width="1" fill="none" fill-rule="evenodd" sketch:type="MSPage">
        <g id="sticker-mule" sketch:type="MSLayerGroup" fill="#4E2817">
            <g id="Page-1" sketch:type="MSShapeGroup">
                <g id="02-sticker-mule-logo-light-bg-stacked">
                    <path d="M95.5,142 C94.2,142.6 92.4,142.5 90.5,142.6 C88.9,142.6 86.6,142.7 85.7,141.8 C85.2,141.3 85,140.4 85,139.8 C85,139.1 85.1,138.3 85.3,137.5 C85.5,136.6 85.7,135.4 85.3,135 C84.9,134.4 83.4,134.7 82.7,134.2 C81.9,133.7 81.7,132.7 81.4,131.4 C81.3,131 81.1,130.7 81,130.4 C80.8,128.5 81.4,126 81.8,124.1 C82.3,122.1 82.8,120.2 83.2,118.3 C83.7,115.5 83.9,112.3 83.7,109.3 C83.6,107.8 83.4,106.6 83.6,105.3 C83.8,104.1 84.3,103.1 84.6,101.9 C84.7,101.5 84.6,101.1 84.7,100.7 C84.7,100.3 85,100 85,99.7 C85,98.9 84.8,97.9 84.7,96.9 C84.5,94.2 84.7,90.5 84.9,88.2 C85,87.4 85.3,86.5 84.8,86.1 C82,86.1 79.5,86.6 76.9,86.9 C70,87.8 61.3,87.9 54.6,86.6 C54,86.5 53.3,86.5 52.7,86.3 C48,85.2 43.6,83.2 40.2,80.5 C39.7,80.1 39.1,79.6 38.5,79.2 C37.9,78.8 37.3,78.1 36.8,77.9 C34.1,76.6 30.5,78.1 29.4,79.8 C29,80.5 28.6,81.4 28.2,82.2 C27.8,83 27.4,83.8 27.1,84.6 C25.3,88.7 23.3,92.6 21.5,96.7 C20.5,99.1 19.3,101.7 18.5,104.3 C16.9,109.9 18.4,117.5 19.7,122.8 C19.8,123.3 20.1,123.8 20.3,124.3 C20.7,125.6 21.6,127.3 22.6,128.2 C23.1,128.7 24,128.9 24.6,129.4 C25.3,130 25.9,131.3 26.5,132.4 C26.7,132.8 27.1,133.4 27.4,133.9 C28.1,135.1 28.3,136.2 27,136.9 C26,137.4 24.5,137.6 23.1,137.7 C22.5,137.9 22.7,138.7 22.3,139.1 C22.1,139.3 21.1,139.7 20.6,139.9 C18.8,140.4 15.6,140.4 14.2,139.9 C13.5,139.6 12.7,139.1 12.5,138.5 C12.1,137.4 13,135.9 12.2,135.1 C11.8,134.7 11.1,134.8 10.4,134.5 C9.4,134.1 8.5,133.2 8.1,132 C7,129.2 7.7,124.9 7.6,121.5 C7.6,120.5 7.4,119.4 7.4,118.3 C7.3,116.3 6.9,114.3 6.6,112.3 C6.5,111.3 6.2,110.5 6,109.6 C5.7,108.2 5.4,106.6 5,105.2 C4.5,103.6 4.5,102.1 5.1,100.7 C5.2,100.3 5.6,100 5.9,99.5 C6.2,98.7 6.3,97.8 6.3,97.1 C6.1,96.7 5.1,97 4.9,96.6 C4.3,92.2 3.7,87.9 3.3,83.3 C3.2,81.8 3.2,80.2 3,78.6 C2.7,75.5 3,72.3 2.7,69.3 C2.6,67.8 2.2,66.4 2,65 C1.5,61 0.4,55.9 1.2,51.7 C1.7,49 2.7,46.9 4.2,44.9 C5.3,43.5 6.4,42.2 7.7,41 C8.9,39.8 10.3,38.7 11.8,37.6 C12.7,36.9 13.7,36.1 14.8,35.7 C17.1,34.6 20.1,33.7 23.3,33.6 C26.5,33.5 30.1,33.4 33.2,34 C36.2,34.5 39.2,35.1 42.2,35.7 C45.1,36.3 47.9,37.1 50.7,37.8 C51.1,37.9 51.4,38.1 51.7,38.2 C52.6,38.4 53.6,38.5 54.5,38.8 C57.1,39.5 60.4,39.8 63.5,39.8 C66.9,39.8 69.9,39.7 72.7,39 C73.1,38.9 73.4,38.7 73.9,38.5 C74.3,38.3 74.9,38.4 75.3,38.2 C75.6,38.1 75.9,37.8 76.2,37.7 C77.8,36.9 79.2,36.2 80.6,35.2 C81.7,34.4 82.7,33.7 84.2,33.1 C84.9,32.8 85.5,32.5 86.2,32.3 C87.6,31.8 89.2,31.4 90.3,30.7 C92,29.6 93.3,28 94.7,26.8 C96.2,25.5 97.7,24.3 99.3,23 C102.5,20.5 105.7,18.2 108.7,15.8 C110.2,14.6 111.9,13.4 113.7,12.4 C117.2,10.4 120.7,8.1 125.7,7.7 C127.7,7.6 129.7,7.5 131.7,7.8 C132.2,7.9 133,8.2 133.5,8.1 C134,8 134.4,7.2 134.8,6.5 C135.5,5.2 136.1,4.3 136.7,2.7 C137.1,1.7 136.9,0.7 137.9,0.8 C138.9,0.8 138.8,3.5 138.8,4.5 C138.9,5.7 138.7,7.3 138.9,8.1 C139,8.7 139.8,9.5 140.6,9.5 C141.2,9.5 141.5,9.1 142,8.7 C142.5,8.4 143,8.2 143.4,7.9 C144.2,7.3 145.2,6.3 146,5.4 C146.7,4.7 147.8,3.1 148.9,3.2 C150.9,3.4 148.9,6.3 148.5,7.3 C147.5,9.6 146.5,11.2 145.3,13.4 C144.8,14.3 143.7,15.5 143.7,16.4 C143.7,17 144.2,17.5 144.5,18.1 C144.6,18.4 144.7,18.8 144.8,19.1 C145.5,20.7 146,22.9 146.5,24.7 C147,26.2 147.3,27.9 147.9,29.4 C148.4,30.9 149.2,32.3 149.8,33.7 C150,34.1 150,34.6 150.1,34.9 C151.4,38.1 152.6,41.8 154.1,44.9 C154.7,46.2 155.6,47.7 155.6,49.6 C155.6,51.6 154.5,52.6 153.6,54.1 C153.1,54.9 152.4,56.1 151.7,56.4 C151.2,56.6 150.5,56.4 150,56.5 C149.2,56.6 148.7,57.1 148,57.2 C146.1,57.4 144.4,56 143.9,54.6 C143.7,54.1 143.8,53.5 143.7,52.9 C143.3,50.7 142.2,49.6 140.6,48.1 C139.6,47.2 138.8,46.5 137.6,45.8 C135.8,44.9 133.9,44.3 132,43.3 C131.3,42.9 130.5,42.6 129.9,42.7 C128.9,42.9 127.9,44.5 127.1,45.5 C122.2,51.9 117.9,58.5 113.2,64.8 C110.1,69 106.7,73.2 104.2,78 C103.6,79.2 103.2,80.6 102.7,82 C102.2,83.4 102,84.9 101.5,86.3 C99.7,91.5 99.1,97.9 97.4,103.4 C97.2,104 97.2,104.6 97,105.3 C96.2,108.1 95.5,111.3 94.6,114.3 C93.9,116.5 93.7,119.5 93.6,122.4 C93.5,125.1 93.4,129 94.4,130.7 C94.9,131.6 96.8,132 97.5,132.9 C98,133.6 98.3,134.9 98.8,135.7 C99.1,136.3 100.1,137.6 100,138.5 C99.9,139.2 99.3,139.7 98.8,139.9 C98.2,140.2 97.4,140 96.8,140.3 C95.9,140.8 96.2,141.6 95.5,142 L95.5,142 L95.5,142 Z" id="Shape"></path>
                </g>
            </g>
        </g>
    </g>
</svg>